<svg id="OBJECTS" xmlns="http://www.w3.org/2000/svg" viewBox="0 0 155.22 72.39"><defs><style>.cls-1{fill:#023c90;}.cls-2{fill:#fce261;}.cls-3{fill:#e0428d;}</style></defs><path class="cls-1" d="M112.84,320.5v4.59c0,5.77,10.33,10.44,23.08,10.44S159,330.86,159,325.09V320.5Z" transform="translate(-59.87 -300.24)"/><ellipse class="cls-2" cx="76.05" cy="20.26" rx="23.08" ry="10.44"/><path class="cls-1" d="M59.87,357.59v4.6c0,5.77,10.33,10.44,23.08,10.44S106,368,106,362.19v-4.6Z" transform="translate(-59.87 -300.24)"/><ellipse class="cls-2" cx="23.08" cy="57.35" rx="23.08" ry="10.44"/><path class="cls-1" d="M119.56,312.2v7.4c0,4.08,7.32,7.4,16.36,7.4s16.36-3.32,16.36-7.4v-7.4Z" transform="translate(-59.87 -300.24)"/><ellipse class="cls-3" cx="76.05" cy="11.96" rx="16.36" ry="7.4"/><path class="cls-1" d="M168.92,320.5v4.59c0,5.77,10.33,10.44,23.08,10.44s23.08-4.67,23.08-10.44V320.5Z" transform="translate(-59.87 -300.24)"/><ellipse class="cls-2" cx="132.14" cy="20.26" rx="23.08" ry="10.44"/><path class="cls-1" d="M175.64,312.2v7.4c0,4.08,7.33,7.4,16.36,7.4s16.36-3.32,16.36-7.4v-7.4Z" transform="translate(-59.87 -300.24)"/><ellipse class="cls-3" cx="132.14" cy="11.96" rx="16.36" ry="7.4"/><path class="cls-1" d="M112.84,357.59v4.6c0,5.77,10.33,10.44,23.08,10.44S159,368,159,362.19v-4.6Z" transform="translate(-59.87 -300.24)"/><ellipse class="cls-2" cx="76.05" cy="57.35" rx="23.08" ry="10.44"/><path class="cls-1" d="M119.56,349.29v7.4c0,4.09,7.32,7.4,16.36,7.4s16.36-3.31,16.36-7.4v-7.4Z" transform="translate(-59.87 -300.24)"/><ellipse class="cls-3" cx="76.05" cy="49.06" rx="16.36" ry="7.4"/><path class="cls-1" d="M168.92,357.59v4.6c0,5.77,10.33,10.44,23.08,10.44s23.08-4.67,23.08-10.44v-4.6Z" transform="translate(-59.87 -300.24)"/><ellipse class="cls-2" cx="132.14" cy="57.35" rx="23.08" ry="10.44"/><path class="cls-1" d="M175.64,349.29v7.4c0,4.09,7.33,7.4,16.36,7.4s16.36-3.31,16.36-7.4v-7.4Z" transform="translate(-59.87 -300.24)"/><ellipse class="cls-3" cx="132.14" cy="49.06" rx="16.36" ry="7.4"/><path class="cls-1" d="M78.71,322.07v35.52c0,.8,1.9,1.44,4.24,1.44s4.23-.64,4.23-1.44V322.07Z" transform="translate(-59.87 -300.24)"/><path class="cls-3" d="M99.31,316.6a15.24,15.24,0,0,1-.25,2.79,16.31,16.31,0,1,1,.25-2.79Z" transform="translate(-59.87 -300.24)"/></svg>